<svg width="97" height="24" viewBox="0 0 97 24" xmlns="http://www.w3.org/2000/svg">
    <g fill="none" fill-rule="evenodd">
        <path d="M15.667 15.948h3.606c.035.86.318 1.521.848 1.986.46.43 1.114.644 1.962.644 1.025 0 1.803-.286 2.334-.859.53-.644.795-1.52.795-2.63 0-1.073-.284-1.895-.848-2.468-.53-.608-1.291-.912-2.28-.912-.53 0-1.008.107-1.433.322-.46.25-.795.573-1.007.966l-3.394-.161L17.47 2.8h8.909c.495.036.928.233 1.299.59.371.359.557.805.557 1.342V6.02H20.12l-.477 3.596c.318-.286.777-.519 1.379-.698a5.955 5.955 0 0 1 1.803-.268c1.873 0 3.375.572 4.507 1.717 1.167 1.18 1.75 2.702 1.75 4.562 0 2.039-.636 3.668-1.909 4.883-1.238 1.18-2.935 1.771-5.09 1.771-2.016 0-3.572-.483-4.667-1.449-1.096-1-1.679-2.396-1.75-4.186z" fill="#00D3BF" fill-rule="nonzero"/>
        <path d="M30.233 21.2V4.774c0-.534.186-.987.558-1.36a2.05 2.05 0 0 1 1.357-.614h3.669l3.616 14.027L43.05 2.8h5.584v18.4h-3.51V6.374L41.402 21.2h-3.882L33.743 6.374V21.2h-3.51zM50.167 8.933h1.971c.511 0 .95.154 1.315.461.364.308.547.677.547 1.107V21.2h-3.833V8.933zM67.417 21.2h-1.851c-.529 0-.96-.169-1.295-.509-.336-.338-.503-.776-.503-1.312v-7.283c0-.857-.255-1.481-.766-1.874a2.75 2.75 0 0 0-1.719-.59c-.634 0-1.198.197-1.692.59-.494.393-.74 1.017-.74 1.874V21.2H55.15v-8.354c0-2.428.625-4.052 1.877-4.874a8.134 8.134 0 0 1 4.15-1.339c1.551 0 2.979.412 4.283 1.232 1.304.822 1.957 2.482 1.957 4.98V21.2zM68.183 16.564h3.645c.035.72.303 1.26.804 1.62.536.359 1.25.539 2.144.539.643 0 1.197-.126 1.662-.378.429-.251.643-.594.643-1.025 0-.648-.75-1.134-2.251-1.458-.643-.108-1.126-.216-1.447-.323-1.895-.468-3.163-1.026-3.806-1.674-.715-.647-1.072-1.51-1.072-2.59 0-1.367.517-2.5 1.554-3.4 1.072-.827 2.466-1.242 4.181-1.242 1.858 0 3.341.415 4.45 1.242 1.036.9 1.59 2.07 1.661 3.508h-2.305c-.68 0-1.197-.306-1.554-.918l-.43-.431c-.428-.324-1.018-.486-1.768-.486-.715 0-1.252.108-1.608.324-.322.216-.483.54-.483.972 0 .575.93 1.061 2.788 1.456.214.073.402.127.563.162.16.037.312.054.455.054 1.823.468 3.09 1.008 3.806 1.62.678.647 1.018 1.51 1.018 2.59 0 1.584-.571 2.806-1.715 3.67-1.072.792-2.68 1.187-4.824 1.187-2.037 0-3.556-.413-4.556-1.241-1.037-.827-1.555-2.032-1.555-3.616v-.162z" fill="#383E4D"/>
        <path d="M54.486 5.508c.374-.224.374-.591 0-.815l-3.639-2.18c-.374-.225-.68-.041-.68.407v4.36c0 .448.306.632.68.408l3.64-2.18c.373-.224.373-.591 0-.815l-3.64-2.18c-.374-.225-.68-.041-.68.407v4.36c0 .448.306.632.68.408l3.64-2.18z" fill="#FFA538" fill-rule="nonzero"/>
    </g>
</svg>
